<svg width="8" height="32" viewBox="0 0 8 32" fill="none" xmlns="http://www.w3.org/2000/svg">
<path d="M4 32C2.93913 32 1.92172 31.5786 1.17157 30.8284C0.421428 30.0783 0 29.0609 0 28C0 26.9391 0.421428 25.9217 1.17157 25.1716C1.92172 24.4214 2.93913 24 4 24C5.06087 24 6.07828 24.4214 6.82843 25.1716C7.57857 25.9217 8 26.9391 8 28C8 29.0609 7.57857 30.0783 6.82843 30.8284C6.07828 31.5786 5.06087 32 4 32ZM4 20C2.93913 20 1.92172 19.5786 1.17157 18.8284C0.421428 18.0783 0 17.0609 0 16C0 14.9391 0.421428 13.9217 1.17157 13.1716C1.92172 12.4214 2.93913 12 4 12C5.06087 12 6.07828 12.4214 6.82843 13.1716C7.57857 13.9217 8 14.9391 8 16C8 17.0609 7.57857 18.0783 6.82843 18.8284C6.07828 19.5786 5.06087 20 4 20ZM4 8C2.93913 8 1.92172 7.57857 1.17157 6.82843C0.421428 6.07828 0 5.06087 0 4C0 2.93913 0.421428 1.92172 1.17157 1.17157C1.92172 0.421427 2.93913 0 4 0C5.06087 0 6.07828 0.421427 6.82843 1.17157C7.57857 1.92172 8 2.93913 8 4C8 5.06087 7.57857 6.07828 6.82843 6.82843C6.07828 7.57857 5.06087 8 4 8Z" fill="#4D5777"/>
</svg>
