<svg width="64" height="50" viewBox="0 0 64 50" fill="none" xmlns="http://www.w3.org/2000/svg">
<path fill-rule="evenodd" clip-rule="evenodd" d="M47.8031 22.644C51.1443 20.7896 51.1443 16.1537 47.8031 14.2994C44.4286 12.4265 40.4641 15.6334 41.8072 19.1496L42.4266 20.7709C43.226 22.8638 45.7947 23.7585 47.8031 22.644ZM33.8546 25.1576C36.7763 25.1576 38.8455 22.4143 37.9374 19.7449L35.2899 11.9613C35.0623 11.2923 34.4132 10.8398 33.681 10.8398C32.9245 10.8398 32.2598 11.3224 32.0529 12.0219L29.7228 19.8988C28.9428 22.5356 31.0029 25.1576 33.8546 25.1576ZM29.5008 32.8017C31.4716 31.7079 30.6644 28.8116 28.3886 28.8116C27.447 28.8116 26.6074 29.3815 26.2924 30.2345C25.6006 32.1079 27.7099 33.7955 29.5008 32.8017ZM21.3891 31.5832C20.2678 34.5186 16.2649 35.9814 15.7592 32.8924C15.7182 32.6421 15.6968 32.3837 15.6968 32.1184L15.6968 4.82488C15.6968 1.11622 19.8732 -1.2017 23.2144 0.652637L26.8909 2.69311C29.5296 4.15759 30.6896 7.23469 29.6394 9.98415L21.3891 31.5832Z" fill="#5D95EA"/>
<path d="M0 49.9436H1.63023L2.33632 48.2199H5.60718L6.31326 49.9436H7.98503L4.73495 42.3324H3.26047L0 49.9436ZM2.90742 46.8078L3.97694 44.243L5.03607 46.8078H2.90742Z" fill="#F2F7FF"/>
<path d="M14.2392 49.9436H15.8382V43.8588H18.1538V42.3843H11.9132V43.8588H14.2392V49.9436Z" fill="#F2F7FF"/>
<path d="M23.6848 49.9436H29.0843V48.4899H25.2735V42.3843H23.6848V49.9436Z" fill="#F2F7FF"/>
<path d="M33.9477 49.9436H35.5779L36.284 48.2199H39.5548L40.2609 49.9436H41.9327L38.6826 42.3324H37.2081L33.9477 49.9436ZM36.8551 46.8078L37.9246 44.243L38.9837 46.8078H36.8551Z" fill="#F2F7FF"/>
<path d="M48.1868 49.9436H49.7859V43.8588H52.1015V42.3843H45.8609V43.8588H48.1868V49.9436Z" fill="#F2F7FF"/>
<path d="M56.015 49.9436H57.6452L58.3513 48.2199H61.6222L62.3282 49.9436H64L60.7499 42.3324H59.2754L56.015 49.9436ZM58.9224 46.8078L59.9919 44.243L61.051 46.8078H58.9224Z" fill="#F2F7FF"/>
</svg>
