<svg width="32" height="32" viewBox="0 0 32 32" fill="none" xmlns="http://www.w3.org/2000/svg">
<path fill-rule="evenodd" clip-rule="evenodd" d="M10.24 10.6C10.0703 10.6 9.90747 10.6674 9.78745 10.7875C9.66743 10.9075 9.6 11.0703 9.6 11.24V18.44C9.6 18.6097 9.66743 18.7725 9.78745 18.8925C9.90748 19.0126 10.0703 19.08 10.24 19.08H10.96C11.4018 19.08 11.76 19.4382 11.76 19.88C11.76 20.3218 11.4018 20.68 10.96 20.68H10.24C9.64591 20.68 9.07616 20.444 8.65608 20.0239C8.236 19.6038 8 19.0341 8 18.44V11.24C8 10.6459 8.236 10.0762 8.65608 9.65608C9.07616 9.236 9.64592 9 10.24 9H21.76C22.3541 9 22.9238 9.236 23.3439 9.65608C23.764 10.0762 24 10.6459 24 11.24V18.44C24 19.0341 23.764 19.6038 23.3439 20.0239C22.9238 20.444 22.3541 20.68 21.76 20.68H21.04C20.5982 20.68 20.24 20.3218 20.24 19.88C20.24 19.4382 20.5982 19.08 21.04 19.08H21.76C21.9297 19.08 22.0925 19.0126 22.2125 18.8925C22.3326 18.7725 22.4 18.6097 22.4 18.44V11.24C22.4 11.0703 22.3326 10.9075 22.2125 10.7875C22.0925 10.6674 21.9297 10.6 21.76 10.6H10.24Z" fill="#80B2FF"/>
<path fill-rule="evenodd" clip-rule="evenodd" d="M15.4878 18.5458C15.7845 18.2985 16.2154 18.2985 16.5121 18.5458L20.8321 22.1458C21.0908 22.3614 21.1868 22.716 21.0721 23.0327C20.9575 23.3494 20.6567 23.5604 20.3199 23.5604H11.6799C11.3431 23.5604 11.0424 23.3494 10.9277 23.0327C10.813 22.716 10.909 22.3614 11.1678 22.1458L15.4878 18.5458ZM13.8896 21.9604H18.1103L15.9999 20.2017L13.8896 21.9604Z" fill="#80B2FF"/>
</svg>
