<svg width="32" height="32" viewBox="0 0 32 32" fill="none" xmlns="http://www.w3.org/2000/svg">
<path d="M16.1043 8.0381C16.0121 8.00412 15.913 7.99263 15.8153 8.0046C15.7177 8.01657 15.6244 8.05165 15.5435 8.10685C15.4626 8.16204 15.3965 8.23571 15.3509 8.32154C15.3052 8.40737 15.2813 8.50282 15.2813 8.59973V18.3017C14.7182 17.8579 14.0212 17.611 13.3 17.6001C12.5788 17.5892 11.8744 17.8148 11.2978 18.2414C10.7211 18.668 10.305 19.2713 10.1149 19.9564C9.92481 20.6415 9.97157 21.3694 10.2478 22.0255C10.5241 22.6815 11.0141 23.2285 11.6407 23.5801C12.2674 23.9318 12.995 24.0682 13.709 23.9679C14.4231 23.8676 15.083 23.5363 15.5847 23.0261C16.0865 22.5159 16.4016 21.8558 16.4805 21.1499C16.4934 21.101 16.4999 21.0507 16.5 21.0003V13.4655L22.1769 15.5616C22.2691 15.5956 22.3683 15.6071 22.4659 15.5951C22.5636 15.5832 22.6568 15.5481 22.7377 15.4929C22.8186 15.4377 22.8847 15.364 22.9304 15.2782C22.9761 15.1924 23 15.0969 23 15V12.3863C23.0001 11.8569 22.8361 11.34 22.5299 10.9048C22.2237 10.4696 21.7899 10.1369 21.2864 9.95099L16.1043 8.0381Z" fill="#80B2FF"/>
</svg>
