<svg width="32" height="32" viewBox="0 0 32 32" fill="none" xmlns="http://www.w3.org/2000/svg">
<path d="M19.7335 13.0667H16.5335V10.9334H22.4002C22.6123 10.9331 22.8157 10.8488 22.9657 10.6988C23.1156 10.5488 23.2 10.3455 23.2002 10.1334V8H22.1336V9.8667H16.2668C16.0547 9.86693 15.8513 9.9513 15.7014 10.1013C15.5514 10.2513 15.467 10.4546 15.4668 10.6667V13.0667H12.2667C11.1355 13.068 10.051 13.518 9.25111 14.3179C8.45122 15.1177 8.00128 16.2023 8 17.3335V20.6986C8.00091 21.5033 8.32095 22.2747 8.88992 22.8437C9.45889 23.4126 10.2303 23.7327 11.0349 23.7336H11.0949C11.54 23.7342 11.9797 23.6366 12.3828 23.4479C12.7858 23.2591 13.1423 22.9838 13.4268 22.6416L15.1834 20.5335H16.8044L18.56 22.8157C18.9464 23.318 19.4805 23.6868 20.0871 23.8702C20.6938 24.0536 21.3426 24.0424 21.9426 23.8383C22.5426 23.6343 23.0637 23.2474 23.4327 22.7322C23.8018 22.2169 24.0002 21.5991 24.0003 20.9653V17.3335C23.999 16.2023 23.549 15.1177 22.7491 14.3179C21.9493 13.518 20.8647 13.068 19.7335 13.0667ZM22.9336 20.9653C22.9336 21.3764 22.8049 21.7771 22.5655 22.1113C22.3262 22.4455 21.9882 22.6963 21.5991 22.8287C21.2099 22.961 20.7891 22.9682 20.3956 22.8493C20.0022 22.7303 19.6558 22.4911 19.4052 22.1653L17.3294 19.4668H14.6836L12.6071 21.9587C12.4227 22.1806 12.1915 22.3592 11.9301 22.4816C11.6688 22.604 11.3837 22.6673 11.095 22.6669H11.035C10.5132 22.6663 10.0129 22.4588 9.64385 22.0898C9.27484 21.7208 9.06727 21.2205 9.06668 20.6986V17.3335C9.06764 16.4851 9.40509 15.6717 10.005 15.0718C10.6049 14.4718 11.4183 14.1344 12.2667 14.1334H19.7335C20.5819 14.1344 21.3953 14.4718 21.9952 15.0718C22.5952 15.6717 22.9326 16.4851 22.9336 17.3335V20.9653Z" fill="#80B2FF"/>
<path d="M19.4668 15.7334H20.5335V16.8001H19.4668V15.7334ZM19.4668 18.4001H20.5335V19.4668H19.4668V18.4001ZM18.1334 17.0668H19.2001V18.1334H18.1334V17.0668ZM20.8001 17.0668H21.8668V18.1334H20.8001V17.0668ZM12.5333 15.7334H11.4667V17.0668H10.1333V18.1334H11.4667V19.4668H12.5333V18.1334H13.8667V17.0668H12.5333V15.7334Z" fill="#80B2FF"/>
</svg>
