<svg width="32" height="25" viewBox="0 0 32 25" fill="none" xmlns="http://www.w3.org/2000/svg">
<path fill-rule="evenodd" clip-rule="evenodd" d="M0 1.92308C0 0.860991 0.859613 0 1.92 0H30.08C31.1404 0 32 0.860991 32 1.92308C32 2.98516 31.1404 3.84615 30.08 3.84615H1.92C0.859613 3.84615 0 2.98516 0 1.92308ZM0 12.5C0 11.4379 0.859613 10.5769 1.92 10.5769H30.08C31.1404 10.5769 32 11.4379 32 12.5C32 13.5621 31.1404 14.4231 30.08 14.4231H1.92C0.859613 14.4231 0 13.5621 0 12.5ZM0 23.0769C0 22.0148 0.859613 21.1538 1.92 21.1538H30.08C31.1404 21.1538 32 22.0148 32 23.0769C32 24.139 31.1404 25 30.08 25H1.92C0.859613 25 0 24.139 0 23.0769Z" fill="#4D5777"/>
</svg>
