<svg width="32" height="32" viewBox="0 0 32 32" fill="none" xmlns="http://www.w3.org/2000/svg">
<path d="M15.9999 10.8574C15.3642 10.8574 14.7428 11.0459 14.2142 11.3991C13.6856 11.7523 13.2736 12.2543 13.0303 12.8417C12.787 13.429 12.7234 14.0753 12.8474 14.6988C12.9714 15.3223 13.2776 15.895 13.7271 16.3445C14.1766 16.7941 14.7493 17.1002 15.3729 17.2242C15.9964 17.3483 16.6427 17.2846 17.23 17.0413C17.8173 16.798 18.3193 16.3861 18.6725 15.8575C19.0257 15.3289 19.2142 14.7074 19.2142 14.0717C19.2142 13.2192 18.8756 12.4017 18.2728 11.7989C17.67 11.1961 16.8524 10.8574 15.9999 10.8574ZM15.9999 16.0003C15.6185 16.0003 15.2456 15.8872 14.9285 15.6753C14.6113 15.4633 14.3641 15.1621 14.2182 14.8097C14.0722 14.4573 14.034 14.0696 14.1084 13.6955C14.1828 13.3214 14.3665 12.9777 14.6362 12.708C14.9059 12.4383 15.2496 12.2546 15.6237 12.1802C15.9978 12.1058 16.3856 12.144 16.738 12.2899C17.0904 12.4359 17.3916 12.6831 17.6035 13.0003C17.8154 13.3174 17.9285 13.6903 17.9285 14.0717C17.928 14.583 17.7246 15.0733 17.3631 15.4348C17.0015 15.7964 16.5113 15.9998 15.9999 16.0003Z" fill="#80B2FF"/>
<path d="M16 7C14.22 7 12.4799 7.52784 10.9999 8.51677C9.51983 9.50571 8.36628 10.9113 7.68509 12.5558C7.0039 14.2004 6.82567 16.01 7.17294 17.7558C7.5202 19.5016 8.37737 21.1053 9.63604 22.364C10.8947 23.6226 12.4984 24.4798 14.2442 24.8271C15.99 25.1743 17.7996 24.9961 19.4442 24.3149C21.0887 23.6337 22.4943 22.4802 23.4832 21.0001C24.4722 19.5201 25 17.78 25 16C24.9973 13.6139 24.0482 11.3263 22.361 9.63905C20.6737 7.95181 18.3861 7.00272 16 7ZM12.1429 22.6709V21.7857C12.1434 21.2744 12.3467 20.7841 12.7083 20.4226C13.0699 20.061 13.5601 19.8577 14.0714 19.8571H17.9286C18.4399 19.8577 18.9301 20.061 19.2917 20.4226C19.6533 20.7841 19.8566 21.2744 19.8571 21.7857V22.6709C18.6866 23.3544 17.3555 23.7146 16 23.7146C14.6445 23.7146 13.3134 23.3544 12.1429 22.6709ZM21.1377 21.7381C21.1249 20.8949 20.7814 20.0905 20.1811 19.4982C19.5808 18.9058 18.7719 18.573 17.9286 18.5714H14.0714C13.2281 18.573 12.4192 18.9058 11.8189 19.4982C11.2187 20.0905 10.8751 20.8949 10.8623 21.7381C9.69651 20.6972 8.8744 19.3267 8.50483 17.8081C8.13525 16.2896 8.23564 14.6946 8.7927 13.2343C9.34976 11.7741 10.3372 10.5175 11.6243 9.63094C12.9114 8.74437 14.4374 8.26966 16.0003 8.26966C17.5632 8.26966 19.0892 8.74437 20.3763 9.63094C21.6634 10.5175 22.6509 11.7741 23.2079 13.2343C23.765 14.6946 23.8654 16.2896 23.4958 17.8081C23.1262 19.3267 22.3041 20.6972 21.1384 21.7381H21.1377Z" fill="#80B2FF"/>
</svg>
