<svg width="32" height="32" viewBox="0 0 32 32" fill="none" xmlns="http://www.w3.org/2000/svg">
<path d="M17.376 13.776C17.4309 13.7171 17.4972 13.6698 17.5708 13.637C17.6444 13.6042 17.7238 13.5865 17.8044 13.5851C17.8849 13.5837 17.965 13.5985 18.0397 13.6287C18.1144 13.6589 18.1823 13.7038 18.2392 13.7608C18.2962 13.8177 18.3411 13.8856 18.3713 13.9603C18.4015 14.035 18.4163 14.1151 18.4149 14.1956C18.4135 14.2762 18.3958 14.3556 18.363 14.4292C18.3302 14.5028 18.2829 14.5691 18.224 14.624L14.624 18.224C14.5691 18.2829 14.5028 18.3302 14.4292 18.363C14.3556 18.3958 14.2762 18.4135 14.1956 18.4149C14.1151 18.4163 14.035 18.4015 13.9603 18.3713C13.8856 18.3411 13.8177 18.2962 13.7608 18.2392C13.7038 18.1823 13.6589 18.1144 13.6287 18.0397C13.5985 17.965 13.5837 17.8849 13.5851 17.8044C13.5865 17.7238 13.6042 17.6444 13.637 17.5708C13.6698 17.4972 13.7171 17.4309 13.776 17.376L17.376 13.776ZM20.6 8C21.5017 8 22.3665 8.35821 23.0042 8.99584C23.6418 9.63346 24 10.4983 24 11.4V12.2C24 18.7168 18.7168 24 12.2 24H11.4C10.4983 24 9.63346 23.6418 8.99584 23.0042C8.35821 22.3665 8 21.5017 8 20.6V19.8C8 13.2832 13.2832 8 19.8 8H20.6ZM22.8 11.4C22.8 10.8165 22.5682 10.2569 22.1556 9.84437C21.7431 9.43178 21.1835 9.2 20.6 9.2H19.8C19.4776 9.2 19.1584 9.2144 18.8432 9.2424L22.7576 13.1568C22.7856 12.8416 22.8 12.5224 22.8 12.2V11.4ZM22.5224 14.6192L17.3808 9.4776C15.4455 9.93277 13.6769 10.9223 12.2764 12.3334C10.8759 13.7445 9.89975 15.5205 9.4592 17.4592L14.5408 22.5408C16.4795 22.1003 18.2556 21.1243 19.6667 19.7237C21.0779 18.3232 22.0673 16.5546 22.5224 14.6192ZM9.2344 18.932C9.212 19.2184 9.2 19.508 9.2 19.8V20.6C9.2 21.1835 9.43178 21.7431 9.84437 22.1556C10.2569 22.5682 10.8165 22.8 11.4 22.8H12.2C12.492 22.8 12.7816 22.788 13.068 22.7648L9.2352 18.932H9.2344Z" fill="#80B2FF"/>
</svg>
