<svg width="32" height="32" viewBox="0 0 32 32" fill="none" xmlns="http://www.w3.org/2000/svg">
<path d="M23 8H8.77778C7.79733 8 7 8.79733 7 9.77778V22.2222C7 23.2027 7.79733 24 8.77778 24H23C23.9804 24 24.7778 23.2027 24.7778 22.2222V9.77778C24.7778 8.79733 23.9804 8 23 8ZM23.0009 13.3333C23 13.3333 23 13.3333 23.0009 13.3333H22.5867L20.216 9.77778H23L23.0009 13.3333ZM13.6978 13.3333L11.3271 9.77778H13.6356L16.0062 13.3333H13.6978ZM18.1422 13.3333L15.7716 9.77778H18.08L20.4507 13.3333H18.1422ZM8.77778 9.77778H9.19111L11.5618 13.3333H8.77778V9.77778ZM8.77778 22.2222V15.1111H23L23.0018 22.2222H8.77778Z" fill="#80B2FF"/>
</svg>
