<svg width="32" height="32" viewBox="0 0 32 32" fill="none" xmlns="http://www.w3.org/2000/svg">
<path d="M22.8889 8H8.88889C7.84711 8 7 8.79733 7 9.77778V22.2222C7 23.2027 7.84711 24 8.88889 24H22.8889C23.9307 24 24.7778 23.2027 24.7778 22.2222V9.77778C24.7778 8.79733 23.9307 8 22.8889 8ZM22.8889 22.2222H8.88889C8.83822 22.2222 8.80356 22.208 8.78844 22.208C8.78222 22.208 8.77867 22.2098 8.77778 22.2151L8.76711 9.81867C8.77333 9.80978 8.81333 9.77778 8.88889 9.77778H22.8889C22.9591 9.77867 22.9973 9.80267 23 9.78489L23.0107 22.1813C23.0044 22.1902 22.9644 22.2222 22.8889 22.2222Z" fill="#80B2FF"/>
<path d="M10.5557 11.5557H15.889V16.889H10.5557V11.5557ZM16.7779 18.6668H10.5557V20.4446H21.2223V18.6668H17.6668H16.7779ZM17.6668 15.1112H21.2223V16.889H17.6668V15.1112ZM17.6668 11.5557H21.2223V13.3334H17.6668V11.5557Z" fill="#80B2FF"/>
</svg>
