<svg width="32" height="32" viewBox="0 0 32 32" fill="none" xmlns="http://www.w3.org/2000/svg">
<path fill-rule="evenodd" clip-rule="evenodd" d="M14.4124 7.63161C14.8415 7.226 15.4095 7 16 7C16.5905 7 17.1585 7.226 17.5876 7.63161C17.5877 7.63165 17.5876 7.63157 17.5876 7.63161L22.8305 12.5865C23.1999 12.9355 23.4942 13.3563 23.6953 13.823C23.8963 14.2896 24 14.7924 24 15.3006C24 15.3006 24 15.3005 24 15.3006V20.8657C24 21.4787 23.7565 22.0665 23.3231 22.4999C22.8897 22.9333 22.3018 23.1768 21.6889 23.1768H10.3111C9.69817 23.1768 9.11033 22.9334 8.67691 22.4999C8.24349 22.0665 8 21.4787 8 20.8657V15.3007C8 15.3006 8 15.3007 8 15.3007C7.99996 14.7925 8.10365 14.2896 8.30473 13.823C8.50582 13.3563 8.80008 12.9355 9.16947 12.5865L14.4124 7.63161C14.4123 7.63165 14.4124 7.63157 14.4124 7.63161ZM16 8.77778C15.8637 8.77778 15.7326 8.82994 15.6336 8.92356L10.3905 13.8787C10.197 14.0615 10.0427 14.282 9.9374 14.5264C9.83207 14.7709 9.77775 15.0343 9.77778 15.3005V20.8657C9.77778 21.0072 9.83397 21.1428 9.93399 21.2429C10.034 21.3429 10.1697 21.3991 10.3111 21.3991H21.6889C21.8303 21.3991 21.966 21.3429 22.066 21.2429C22.166 21.1428 22.2222 21.0072 22.2222 20.8657V15.3006C22.2223 15.0344 22.1679 14.7709 22.0626 14.5264C21.9573 14.282 21.8031 14.0616 21.6096 13.8788L16.3665 8.92367C16.2675 8.83006 16.1363 8.77778 16 8.77778Z" fill="#80B2FF"/>
</svg>
