<svg width="24" height="24" viewBox="0 0 24 24" fill="none" xmlns="http://www.w3.org/2000/svg">
<path d="M14.1924 16.3103C12.356 17.616 10.0963 18.1841 7.86085 17.902C5.62544 17.6199 3.57757 16.5083 2.12309 14.7874C0.668612 13.0664 -0.0863192 10.8618 0.00791453 8.61051C0.102148 6.35916 1.03867 4.22538 2.63187 2.63204C4.22507 1.03871 6.35868 0.102111 8.60983 0.00786941C10.861 -0.0863722 13.0654 0.668621 14.7862 2.12322C16.507 3.57782 17.6185 5.62586 17.9006 7.86145C18.1826 10.097 17.6145 12.357 16.309 14.1935L23.5234 21.4065C23.6705 21.5436 23.7885 21.709 23.8704 21.8927C23.9523 22.0764 23.9963 22.2748 23.9998 22.4759C24.0034 22.677 23.9664 22.8767 23.891 23.0632C23.8157 23.2497 23.7036 23.4191 23.5614 23.5613C23.4192 23.7035 23.2498 23.8157 23.0633 23.891C22.8768 23.9663 22.6771 24.0033 22.476 23.9998C22.2749 23.9962 22.0766 23.9522 21.8929 23.8703C21.7092 23.7885 21.5439 23.6705 21.4068 23.5233L14.1924 16.3103ZM14.9771 8.98541C14.9771 7.39652 14.346 5.87272 13.2226 4.74921C12.0991 3.6257 10.5755 2.99452 8.9867 2.99452C7.39795 2.99452 5.87427 3.6257 4.75086 4.74921C3.62744 5.87272 2.99631 7.39652 2.99631 8.98541C2.99631 10.5743 3.62744 12.0981 4.75086 13.2216C5.87427 14.3451 7.39795 14.9763 8.9867 14.9763C10.5755 14.9763 12.0991 14.3451 13.2226 13.2216C14.346 12.0981 14.9771 10.5743 14.9771 8.98541Z" fill="#4D5777"/>
</svg>
